<svg viewBox="0 0 800 400" xmlns="http://www.w3.org/2000/svg">
  <!-- Background gradient -->
  <defs>
    <linearGradient id="bgGradient" x1="0%" y1="0%" x2="100%" y2="100%">
      <stop offset="0%" stop-color="#0f172a" />
      <stop offset="100%" stop-color="#1e293b" />
    </linearGradient>

    <!-- Glow effect -->
    <filter id="glow" x="-50%" y="-50%" width="200%" height="200%">
      <feGaussianBlur stdDeviation="5" result="blur" />
      <feComposite in="SourceGraphic" in2="blur" operator="over" />
    </filter>
  </defs>

  <!-- Main background -->
  <rect width="800" height="400" fill="url(#bgGradient)" />

  <!-- Abstract network pattern -->
  <g opacity="0.15">
    <circle cx="200" cy="100" r="3" fill="#ffffff" />
    <circle cx="300" cy="150" r="3" fill="#ffffff" />
    <circle cx="400" cy="80" r="3" fill="#ffffff" />
    <circle cx="500" cy="170" r="3" fill="#ffffff" />
    <circle cx="600" cy="120" r="3" fill="#ffffff" />
    <circle cx="150" cy="200" r="3" fill="#ffffff" />
    <circle cx="250" cy="250" r="3" fill="#ffffff" />
    <circle cx="350" cy="220" r="3" fill="#ffffff" />
    <circle cx="450" cy="290" r="3" fill="#ffffff" />
    <circle cx="550" cy="240" r="3" fill="#ffffff" />
    <circle cx="650" cy="280" r="3" fill="#ffffff" />

    <line x1="200" y1="100" x2="300" y2="150" stroke="#ffffff" stroke-width="1" />
    <line x1="300" y1="150" x2="400" y2="80" stroke="#ffffff" stroke-width="1" />
    <line x1="400" y1="80" x2="500" y2="170" stroke="#ffffff" stroke-width="1" />
    <line x1="500" y1="170" x2="600" y2="120" stroke="#ffffff" stroke-width="1" />
    <line x1="150" y1="200" x2="250" y2="250" stroke="#ffffff" stroke-width="1" />
    <line x1="250" y1="250" x2="350" y2="220" stroke="#ffffff" stroke-width="1" />
    <line x1="350" y1="220" x2="450" y2="290" stroke="#ffffff" stroke-width="1" />
    <line x1="450" y1="290" x2="550" y2="240" stroke="#ffffff" stroke-width="1" />
    <line x1="550" y1="240" x2="650" y2="280" stroke="#ffffff" stroke-width="1" />
    <line x1="200" y1="100" x2="150" y2="200" stroke="#ffffff" stroke-width="1" />
    <line x1="300" y1="150" x2="250" y2="250" stroke="#ffffff" stroke-width="1" />
    <line x1="400" y1="80" x2="350" y2="220" stroke="#ffffff" stroke-width="1" />
    <line x1="500" y1="170" x2="450" y2="290" stroke="#ffffff" stroke-width="1" />
    <line x1="600" y1="120" x2="550" y2="240" stroke="#ffffff" stroke-width="1" />
  </g>

  <!-- Main coin graphic -->
  <g transform="translate(400, 200)">
    <!-- Outer ring -->
    <circle cx="0" cy="0" r="80" fill="none" stroke="#64748b" stroke-width="8" />

    <!-- Inner coin -->
    <circle cx="0" cy="0" r="70" fill="#0ea5e9" />

    <!-- Coin highlights -->
    <circle cx="-20" cy="-20" r="60" fill="#38bdf8" opacity="0.3" />

    <!-- Coin symbol -->
    <g filter="url(#glow)">
      <path d="M-20,-10 L20,-10 L20,10 L-20,10 Z M-10,-30 L10,-30 L10,30 L-10,30 Z" fill="#ffffff" />
    </g>
  </g>

  <!-- Accent elements -->
  <circle cx="250" cy="150" r="5" fill="#22d3ee" opacity="0.8">
    <animate attributeName="opacity" values="0.8;0.3;0.8" dur="3s" repeatCount="indefinite" />
  </circle>
  <circle cx="550" cy="250" r="5" fill="#22d3ee" opacity="0.8">
    <animate attributeName="opacity" values="0.8;0.3;0.8" dur="4s" repeatCount="indefinite" />
  </circle>
  <circle cx="650" cy="130" r="5" fill="#22d3ee" opacity="0.8">
    <animate attributeName="opacity" values="0.8;0.3;0.8" dur="3.5s" repeatCount="indefinite" />
  </circle>
  <circle cx="200" cy="320" r="5" fill="#22d3ee" opacity="0.8">
    <animate attributeName="opacity" values="0.8;0.3;0.8" dur="4.5s" repeatCount="indefinite" />
  </circle>

  <!-- Small floating particles -->
  <g opacity="0.6">
    <circle cx="150" cy="100" r="1" fill="#ffffff">
      <animate attributeName="cy" from="100" to="90" dur="5s" repeatCount="indefinite" />
    </circle>
    <circle cx="350" cy="150" r="1" fill="#ffffff">
      <animate attributeName="cy" from="150" to="140" dur="4s" repeatCount="indefinite" />
    </circle>
    <circle cx="450" cy="80" r="1" fill="#ffffff">
      <animate attributeName="cy" from="80" to="70" dur="6s" repeatCount="indefinite" />
    </circle>
    <circle cx="200" cy="250" r="1" fill="#ffffff">
      <animate attributeName="cy" from="250" to="240" dur="5s" repeatCount="indefinite" />
    </circle>
    <circle cx="600" cy="200" r="1" fill="#ffffff">
      <animate attributeName="cy" from="200" to="190" dur="4.5s" repeatCount="indefinite" />
    </circle>
    <circle cx="300" cy="300" r="1" fill="#ffffff">
      <animate attributeName="cy" from="300" to="290" dur="5.5s" repeatCount="indefinite" />
    </circle>
    <circle cx="500" cy="320" r="1" fill="#ffffff">
      <animate attributeName="cy" from="320" to="310" dur="6s" repeatCount="indefinite" />
    </circle>
  </g>
</svg>
